# xmcd CD database file
#
# Track frame offsets:
#	182
#	49932
#	124265
#	147420
#	190745
#
# Disc length: 3065 seconds
#
# Revision: 0
# Processed by: cddbd v1.4PL0 Copyright (c) Steve Scherf et al.
# Submitted via: CDex 1.51
#
DISCID=480bf705
DTITLE=Anthony Braxton - The Coventry Concert
DYEAR=1980
DGENRE=Jazz
TTITLE0=Composition 124
TTITLE1=Composition 88
TTITLE2=Piano Solo and Composition 239
TTITLE3=Composition 69F
TTITLE4=Composition 40N
EXTD=YEAR: 1980
EXTT0=
EXTT1=
EXTT2=
EXTT3=
EXTT4=
PLAYORDER=
